<svg xmlns="http://www.w3.org/2000/svg" viewBox="0 0 39.15 46.07"><defs><style>.cls-1{fill:none;stroke:#fff;stroke-miterlimit:10;stroke-width:2px;}</style></defs><title>Recurso 4</title><g id="Capa_2" data-name="Capa 2"><g id="Capa_12" data-name="Capa 12"><polyline class="cls-1" points="10 39.97 2.68 36.72 1.05 22.26 15.29 9.25 23.02 9.25 38.07 22.62 35.63 37.44 29.12 39.97"/><polyline class="cls-1" points="28.71 24.43 23.43 28.4 26.68 38.89 23.43 43.95 20.17 45.03 16.1 43.95 12.44 39.25 15.29 28.4 10.81 24.43"/><polygon class="cls-1" points="19.76 37.44 15.29 40.33 19.36 42.14 23.43 40.33 19.76 37.44"/><line class="cls-1" x1="23.42" y1="43.95" x2="20.31" y2="42.14"/><line class="cls-1" x1="16.1" y1="43.95" x2="19.36" y2="42.14"/><polyline class="cls-1" points="3.46 20.06 1.05 8.16 4.3 1.66 14.22 10.22"/><polyline class="cls-1" points="24.83 10.86 34.81 1.66 38.07 8.52 35.19 20.06"/></g></g></svg>