<svg xmlns="http://www.w3.org/2000/svg" viewBox="0 0 273.09 360.28"><defs><style>.cls-1{fill:none;stroke:#fff;stroke-miterlimit:10;stroke-width:5px;}</style></defs><title>Recurso 3</title><g id="Capa_2" data-name="Capa 2"><g id="Capa_12" data-name="Capa 12"><polyline class="cls-1" points="67.35 316.44 14.38 289.95 2.6 172.23 105.61 66.27 161.53 66.27 270.43 175.17 252.77 295.84 205.68 316.44"/><polyline class="cls-1" points="202.74 189.88 164.48 222.26 188.02 307.61 164.48 348.82 140.93 357.65 111.5 348.82 85.01 310.56 105.61 222.26 73.24 189.88"/><polygon class="cls-1" points="137.99 295.84 105.61 319.38 135.05 334.1 164.48 319.38 137.99 295.84"/><line class="cls-1" x1="164.48" y1="348.82" x2="141.91" y2="334.1"/><line class="cls-1" x1="111.5" y1="348.82" x2="135.05" y2="334.1"/><polyline class="cls-1" points="20.02 154.31 2.6 57.44 26.15 4.46 97.88 74.23"/><polyline class="cls-1" points="174.65 79.39 246.89 4.46 270.43 60.39 249.57 154.31"/></g></g></svg>